# xmcd CD database file
#
# Track frame offsets:
#	150
#	16257
#	42777
#	71392
#	111065
#	131687
#	151117
#	175387
#	195452
#	224140
#
# Disc length: 3531 seconds
#
# Revision: 4
# Processed by: cddbd v1.5.1PL2 Copyright (c) Steve Scherf et al.
# Submitted via: CDex 1.51
#
DISCID=850dc90a
DTITLE=Big Gilson With Bruce Ewan and The Solid Senders - Live At The Blue Note
DYEAR=2000
DGENRE=Blues
TTITLE0=Tribute To Roy Buchanan
TTITLE1=Cab Driver Blues
TTITLE2=Ghreen´s Boogie
TTITLE3=Blue And Lonesome
TTITLE4=I Got To Go
TTITLE5=Messiah Will Come Again
TTITLE6=Shake Your Moneymaker
TTITLE7=Judgement Day
TTITLE8=Hey Doc
TTITLE9=Drivin' Wheel
EXTD=Gravado ao vivo no Blue Note NY YEAR: 2000
EXTT0=
EXTT1=
EXTT2=
EXTT3=
EXTT4=
EXTT5=
EXTT6=
EXTT7=
EXTT8=
EXTT9=
PLAYORDER=
